<?xml version="1.0" encoding="UTF-8"?>
<svg version="1.1" xmlns="http://www.w3.org/2000/svg" width="16" height="16">
<path d="M0 0 C3.3 0.66 6.6 1.32 10 2 C10.32152515 5.53677664 10.4131192 7.3962104 8.375 10.375 C5.36281721 12.43596718 3.5817622 12.38932198 0 12 C-0.66 11.67 -1.32 11.34 -2 11 C-1.67 10.01 -1.34 9.02 -1 8 C-1.27571139 5.99124558 -1.60235737 3.98821313 -2 2 C-1.34 2 -0.68 2 0 2 C0 1.34 0 0.68 0 0 Z " fill="#3D6666" transform="translate(4,2)"/>
<path d="M0 0 C0.66 0.33 1.32 0.66 2 1 C1 4 1 4 -1 5 C-6.53846154 5.23076923 -6.53846154 5.23076923 -9 4 C-9 3.34 -9 2.68 -9 2 C-5.86835237 0.14420881 -3.62777837 -0.28640356 0 0 Z " fill="#16546E" transform="translate(11,9)"/>
<path d="M0 0 C0.99 0.33 1.98 0.66 3 1 C4.33106622 1.34227417 5.66400079 1.67751743 7 2 C6.67 3.65 6.34 5.3 6 7 C5.67 6.34 5.34 5.68 5 5 C3.02 5 1.04 5 -1 5 C-1 1 -1 1 0 0 Z " fill="#9CA777" transform="translate(6,4)"/>
</svg>
